# xmcd CD database file
#
# Track frame offsets:
#	150
#	12316
#	25247
#	40139
#	53402
#	65000
#	74493
#	90632
#	102833
#	121914
#
# Disc length: 1744 seconds
#
# Revision: 0
# Processed by: cddbd v1.5.1PL2 Copyright (c) Steve Scherf et al.
# Submitted via: CDex 1.51
#
DISCID=7e06ce0a
DTITLE=Lantern Parade - Lantern Parade
DYEAR=1900
DGENRE=JPop
TTITLE0=ランタンパレードの激情
TTITLE1=よくある話
TTITLE2=もう手遅れ
TTITLE3=さざめく心
TTITLE4=君　次第
TTITLE5=続・ランタンパレードの激情
TTITLE6=瞬きする間に
TTITLE7=あとはおまけのようなもの
TTITLE8=ひとりの求愛者　立春編
TTITLE9=陽射しのある情景
EXTD=
EXTT0=
EXTT1=
EXTT2=
EXTT3=
EXTT4=
EXTT5=
EXTT6=
EXTT7=
EXTT8=
EXTT9=
PLAYORDER=
